<mxfile modified="2022-05-02T01:24:14.723Z" host="app.diagrams.net" agent="5.0 (Windows NT 10.0; Win64; x64) AppleWebKit/537.36 (KHTML, like Gecko) Chrome/100.0.4896.127 Safari/537.36 Edg/100.0.1185.50" etag="8N7nauyY6kMi-HYBDURD" compressed="false" version="17.5.0" type="google">
  <diagram id="Bh8vFgqB_GV0OL_2_jIh" name="System Types">
    <mxGraphModel grid="1" page="1" gridSize="10" guides="1" tooltips="1" connect="1" arrows="1" fold="1" pageScale="1" pageWidth="827" pageHeight="1169" math="0" shadow="0">
      <root>
        <mxCell id="hJH9W0-bUoA2mJvGCvHp-0" />
        <mxCell id="hJH9W0-bUoA2mJvGCvHp-1" parent="hJH9W0-bUoA2mJvGCvHp-0" />
        <mxCell id="hJH9W0-bUoA2mJvGCvHp-2" value="Project Management Systems" style="rounded=0;whiteSpace=wrap;html=1;" vertex="1" parent="hJH9W0-bUoA2mJvGCvHp-1">
          <mxGeometry x="170" y="160" width="80" height="80" as="geometry" />
        </mxCell>
        <mxCell id="hJH9W0-bUoA2mJvGCvHp-3" value="Project Development Management Systems" style="rounded=0;whiteSpace=wrap;html=1;" vertex="1" parent="hJH9W0-bUoA2mJvGCvHp-1">
          <mxGeometry x="270" y="160" width="80" height="80" as="geometry" />
        </mxCell>
        <mxCell id="hJH9W0-bUoA2mJvGCvHp-4" value="Project Environment &amp;amp; Deployment Systems" style="rounded=0;whiteSpace=wrap;html=1;" vertex="1" parent="hJH9W0-bUoA2mJvGCvHp-1">
          <mxGeometry x="370" y="160" width="80" height="80" as="geometry" />
        </mxCell>
        <mxCell id="hJH9W0-bUoA2mJvGCvHp-5" value="Information Service&lt;br&gt;System" style="rounded=0;whiteSpace=wrap;html=1;" vertex="1" parent="hJH9W0-bUoA2mJvGCvHp-1">
          <mxGeometry x="470" y="160" width="80" height="80" as="geometry" />
        </mxCell>
        <mxCell id="hJH9W0-bUoA2mJvGCvHp-6" value="Information Service Client&lt;br&gt;System" style="rounded=0;whiteSpace=wrap;html=1;" vertex="1" parent="hJH9W0-bUoA2mJvGCvHp-1">
          <mxGeometry x="570" y="160" width="80" height="80" as="geometry" />
        </mxCell>
        <mxCell id="hJH9W0-bUoA2mJvGCvHp-7" value="&lt;span&gt;(eg: Deployment Pipeline &amp;amp; Cloud Infrastructure&amp;nbsp;&lt;/span&gt;&lt;br&gt;&lt;span&gt;Instructions)&lt;/span&gt;" style="rounded=0;whiteSpace=wrap;html=1;fillColor=#f5f5f5;fontColor=#333333;strokeColor=none;" vertex="1" parent="hJH9W0-bUoA2mJvGCvHp-1">
          <mxGeometry x="370" y="250" width="80" height="80" as="geometry" />
        </mxCell>
        <mxCell id="hJH9W0-bUoA2mJvGCvHp-8" value="&lt;span&gt;(eg: the business funded logic&lt;br&gt;&lt;/span&gt;&lt;span&gt;on an custom or procured IT platform)&lt;/span&gt;" style="rounded=0;whiteSpace=wrap;html=1;fillColor=#f5f5f5;fontColor=#333333;strokeColor=none;" vertex="1" parent="hJH9W0-bUoA2mJvGCvHp-1">
          <mxGeometry x="470" y="250" width="80" height="80" as="geometry" />
        </mxCell>
        <mxCell id="hJH9W0-bUoA2mJvGCvHp-9" value="&lt;span&gt;(eg: the interface using the service&#39;s exposed APIs&lt;/span&gt;&lt;span&gt;)&lt;/span&gt;" style="rounded=0;whiteSpace=wrap;html=1;fillColor=#f5f5f5;fontColor=#333333;strokeColor=none;" vertex="1" parent="hJH9W0-bUoA2mJvGCvHp-1">
          <mxGeometry x="570" y="250" width="80" height="80" as="geometry" />
        </mxCell>
        <mxCell id="hJH9W0-bUoA2mJvGCvHp-10" value="&lt;span&gt;(eg: an Application Lifecycle Suite to manage work items, testing, etc.&lt;/span&gt;&lt;span&gt;)&lt;/span&gt;" style="rounded=0;whiteSpace=wrap;html=1;fillColor=#f5f5f5;fontColor=#333333;strokeColor=none;" vertex="1" parent="hJH9W0-bUoA2mJvGCvHp-1">
          <mxGeometry x="270" y="250" width="80" height="80" as="geometry" />
        </mxCell>
        <mxCell id="hJH9W0-bUoA2mJvGCvHp-11" value="&lt;span&gt;(eg: traditional enterprise document management sharing services, etc.&lt;/span&gt;&lt;span&gt;)&lt;/span&gt;" style="rounded=0;whiteSpace=wrap;html=1;fillColor=#f5f5f5;fontColor=#333333;strokeColor=none;" vertex="1" parent="hJH9W0-bUoA2mJvGCvHp-1">
          <mxGeometry x="170" y="250" width="80" height="80" as="geometry" />
        </mxCell>
        <mxCell id="iaEhRC2UTlFRXQZy5M-z-1" value="Type" style="rounded=0;whiteSpace=wrap;html=1;horizontal=0;fillColor=#f5f5f5;strokeColor=#666666;fontColor=#333333;fontStyle=1" vertex="1" parent="hJH9W0-bUoA2mJvGCvHp-1">
          <mxGeometry x="120" y="160" width="40" height="80" as="geometry" />
        </mxCell>
        <mxCell id="iaEhRC2UTlFRXQZy5M-z-2" value="Purpose" style="rounded=0;whiteSpace=wrap;html=1;horizontal=0;fillColor=#f5f5f5;strokeColor=#666666;fontColor=#333333;fontStyle=1" vertex="1" parent="hJH9W0-bUoA2mJvGCvHp-1">
          <mxGeometry x="120" y="250" width="40" height="80" as="geometry" />
        </mxCell>
        <mxCell id="tS6pIqax43tGgUL2_lo5-0" value="&lt;font style=&quot;font-size: 12px&quot;&gt;&lt;span style=&quot;font-size: 12px&quot;&gt;Diagram: &lt;/span&gt;System Context - System Types&lt;/font&gt;" style="text;strokeColor=none;fillColor=none;html=1;fontSize=24;fontStyle=2;verticalAlign=middle;align=left;shadow=0;glass=0;comic=0;opacity=30;fontColor=#808080;" vertex="1" parent="hJH9W0-bUoA2mJvGCvHp-1">
          <mxGeometry x="120" y="350" width="520" height="20" as="geometry" />
        </mxCell>
      </root>
    </mxGraphModel>
  </diagram>
</mxfile>
